<?xml version="1.1" encoding="UTF-8"?>
<svg xmlns="http://www.w3.org/2000/svg"
    xmlns:latexdraw="http://latexdraw.sourceforge.net/namespaces/latexdraw"
    version="1.1" baseProfile="full">
    <g>
        <g latexdraw:type="rectangle" id="id378936524">
            <rect x="249.5" y="19.5" width="199.0" height="28.0"
                latexdraw:borderPos="outer" stroke-width="1.0"
                stroke="black" fill="url(#pattern378936524)"/>
        </g>
        <g latexdraw:type="rectangle" id="id1962167781">
            <rect x="249.5" y="297.5" width="199.0" height="25.0"
                latexdraw:borderPos="outer" stroke-width="1.0"
                stroke="black" fill="url(#pattern1962167781)"/>
        </g>
        <g latexdraw:type="rectangle" id="id1316803850">
            <rect x="249.5" y="48.5" width="199.0" height="250.0"
                latexdraw:borderPos="outer" stroke-width="1.0"
                stroke="black" fill="none"/>
        </g>
        <g latexdraw:type="joinedLines" id="id1587568131">
            <polyline points="299.0,49.0 299.0,300.0 "
                stroke-width="1.0" stroke="black" latexdraw:rotationAngle="0.0"/>
        </g>
        <g latexdraw:type="joinedLines" id="id241418595">
            <polyline points="349.0,49.0 349.0,296.0 "
                stroke-width="1.0" stroke="black" latexdraw:rotationAngle="0.0"/>
        </g>
        <g latexdraw:type="joinedLines" id="id1484416387">
            <polyline points="399.0,49.0 399.0,298.0 "
                stroke-width="1.0" stroke="black" latexdraw:rotationAngle="0.0"/>
        </g>
        <g latexdraw:type="rectangle" id="id1649466550">
            <rect x="250.5" y="250.5" width="48.0" height="23.0"
                latexdraw:borderPos="outer" stroke-width="1.0"
                stroke="black" fill="url(#pattern1649466550)"/>
        </g>
        <g latexdraw:type="rectangle" id="id877528348">
            <rect x="300.3333333333333" y="263.6666666666667"
                width="48.666666666666686" height="22.0"
                latexdraw:borderPos="outer" stroke-width="2.0"
                stroke="black" fill="url(#pattern877528348)"/>
        </g>
        <g latexdraw:type="rectangle" id="id1314223355">
            <rect x="300.3333333333333" y="163.66666666666666"
                width="48.0" height="48.0" latexdraw:borderPos="outer"
                stroke-width="2.0" stroke="black" fill="url(#pattern1314223355)"/>
        </g>
        <g latexdraw:type="rectangle" id="id657789499">
            <rect x="464.99999999999955" y="129.0"
                width="36.66666666666674" height="41.999999999999986"
                latexdraw:borderPos="outer" stroke-width="2.0"
                stroke="black" fill="url(#pattern657789499)"/>
        </g>
        <g latexdraw:type="rectangle" id="id1539903064">
            <rect x="465.0000000000001" y="198.99999999999994"
                width="36.66666666666674" height="40.666666666666686"
                latexdraw:borderPos="outer" stroke-width="2.0"
                stroke="black" fill="url(#pattern1539903064)"/>
        </g>
        <g latexdraw:type="text" id="id638196" fill="black" latexdraw:position="bl">
            <text x="509.3333333333335" y="157.9999999999999">Other Cars</text>
        </g>
        <g latexdraw:type="text" id="id163110706" fill="black" latexdraw:position="bl">
            <text x="509.3333333333335" y="223.9999999999997">ACM Car</text>
        </g>
        <g latexdraw:type="rectangle" id="id1808984503">
            <rect x="350.3333333333333" y="250.33333333333334"
                width="46.666666666666686" height="2.666666666666657"
                latexdraw:borderPos="outer" stroke-width="2.0"
                stroke="black" fill="url(#pattern1808984503)"/>
        </g>
        <g latexdraw:type="rectangle" id="id1303527188">
            <rect x="350.3333333333333" y="75.0" width="48.0"
                height="98.0" latexdraw:borderPos="outer"
                stroke-width="2.0" stroke="black" fill="url(#pattern1303527188)"/>
        </g>
        <g latexdraw:type="text" id="id354838843" fill="black" latexdraw:position="bl">
            <text x="168.66666666666652" y="164.0">Distance</text>
        </g>
        <g latexdraw:type="text" id="id2043444237" fill="black" latexdraw:position="bl">
            <text x="218.00000000000009" y="54.66666666666674">100</text>
        </g>
        <g latexdraw:type="text" id="id1080840524" fill="black" latexdraw:position="bl">
            <text x="229.33333333333334" y="303.3333333333335">0</text>
        </g>
        <g latexdraw:type="text" id="id874151032" fill="black" latexdraw:position="bl">
            <text x="266.66666666666663" y="342.0000000000002">0</text>
        </g>
        <g latexdraw:type="text" id="id1446838070" fill="black" latexdraw:position="bl">
            <text x="320.6666666666669" y="342.0000000000002">1</text>
        </g>
        <g latexdraw:type="text" id="id363993897" fill="black" latexdraw:position="bl">
            <text x="368.66666666666674" y="342.0000000000002">2</text>
        </g>
        <g latexdraw:type="text" id="id1459219754" fill="black" latexdraw:position="bl">
            <text x="421.33333333333366" y="342.0000000000002">3</text>
        </g>
        <g latexdraw:type="text" id="id4044151" fill="black" latexdraw:position="bl">
            <text x="329.3333333333335" y="359.99999999999994">Lanes</text>
        </g>
    </g>
    <defs>
        <pattern latexdraw:type="crosshatch*"
            latexdraw:rotationAngle="0.0"
            latexdraw:size="7.055555555555555"
            patternUnits="userSpaceOnUse" id="pattern378936524" x="0"
            y="0" width="449" height="48">
            <rect width="449" height="48" fill="white" stroke="none"/>
            <g stroke="black" stroke-width="2.0" stroke-dasharray="none">
                <path d="M 249.0 19.0 L 249.0 48.0 M 258.05555555555554 19.0 L 258.05555555555554 48.0 M 267.1111111111111 19.0 L 267.1111111111111 48.0 M 276.16666666666663 19.0 L 276.16666666666663 48.0 M 285.2222222222222 19.0 L 285.2222222222222 48.0 M 294.2777777777777 19.0 L 294.2777777777777 48.0 M 303.33333333333326 19.0 L 303.33333333333326 48.0 M 312.3888888888888 19.0 L 312.3888888888888 48.0 M 321.44444444444434 19.0 L 321.44444444444434 48.0 M 330.4999999999999 19.0 L 330.4999999999999 48.0 M 339.55555555555543 19.0 L 339.55555555555543 48.0 M 348.611111111111 19.0 L 348.611111111111 48.0 M 357.6666666666665 19.0 L 357.6666666666665 48.0 M 366.72222222222206 19.0 L 366.72222222222206 48.0 M 375.7777777777776 19.0 L 375.7777777777776 48.0 M 384.83333333333314 19.0 L 384.83333333333314 48.0 M 393.8888888888887 19.0 L 393.8888888888887 48.0 M 402.94444444444423 19.0 L 402.94444444444423 48.0 M 411.9999999999998 19.0 L 411.9999999999998 48.0 M 421.0555555555553 19.0 L 421.0555555555553 48.0 M 430.11111111111086 19.0 L 430.11111111111086 48.0 M 439.1666666666664 19.0 L 439.1666666666664 48.0 M 448.22222222222194 19.0 L 448.22222222222194 48.0 M 249.0 19.0 L 449.0 19.0 M 249.0 28.055555555555557 L 449.0 28.055555555555557 M 249.0 37.111111111111114 L 449.0 37.111111111111114 M 249.0 46.16666666666667 L 449.0 46.16666666666667 "/>
            </g>
        </pattern>
        <pattern latexdraw:type="crosshatch*"
            latexdraw:rotationAngle="0.0"
            latexdraw:size="7.055555555555555"
            patternUnits="userSpaceOnUse" id="pattern1962167781" x="0"
            y="0" width="449" height="323">
            <rect width="449" height="323" fill="white" stroke="none"/>
            <g stroke="black" stroke-width="2.0" stroke-dasharray="none">
                <path d="M 249.0 297.0 L 249.0 323.0 M 258.05555555555554 297.0 L 258.05555555555554 323.0 M 267.1111111111111 297.0 L 267.1111111111111 323.0 M 276.16666666666663 297.0 L 276.16666666666663 323.0 M 285.2222222222222 297.0 L 285.2222222222222 323.0 M 294.2777777777777 297.0 L 294.2777777777777 323.0 M 303.33333333333326 297.0 L 303.33333333333326 323.0 M 312.3888888888888 297.0 L 312.3888888888888 323.0 M 321.44444444444434 297.0 L 321.44444444444434 323.0 M 330.4999999999999 297.0 L 330.4999999999999 323.0 M 339.55555555555543 297.0 L 339.55555555555543 323.0 M 348.611111111111 297.0 L 348.611111111111 323.0 M 357.6666666666665 297.0 L 357.6666666666665 323.0 M 366.72222222222206 297.0 L 366.72222222222206 323.0 M 375.7777777777776 297.0 L 375.7777777777776 323.0 M 384.83333333333314 297.0 L 384.83333333333314 323.0 M 393.8888888888887 297.0 L 393.8888888888887 323.0 M 402.94444444444423 297.0 L 402.94444444444423 323.0 M 411.9999999999998 297.0 L 411.9999999999998 323.0 M 421.0555555555553 297.0 L 421.0555555555553 323.0 M 430.11111111111086 297.0 L 430.11111111111086 323.0 M 439.1666666666664 297.0 L 439.1666666666664 323.0 M 448.22222222222194 297.0 L 448.22222222222194 323.0 M 249.0 297.0 L 449.0 297.0 M 249.0 306.05555555555554 L 449.0 306.05555555555554 M 249.0 315.1111111111111 L 449.0 315.1111111111111 "/>
            </g>
        </pattern>
        <pattern latexdraw:type="crosshatch*"
            latexdraw:rotationAngle="-0.7853981633974483"
            latexdraw:size="7.055555555555555"
            patternUnits="userSpaceOnUse" id="pattern1649466550" x="0"
            y="0" width="299" height="274">
            <rect width="299" height="274" fill="white" stroke="none"/>
            <g stroke="black" stroke-width="2.0" stroke-dasharray="none">
                <path d="M 250.0 261.1935105185103 L 262.8064894814897 274.0 M 250.0 248.38702103702062 L 275.61297896297935 274.0 M 250.0 235.5805315555309 L 288.41946844446903 274.0 M 250.0 222.7740420740412 L 301.2259579259587 274.0 M 250.0 209.9675525925515 L 314.0324474074484 274.0 M 250.0 197.1610631110618 L 326.83893688893806 274.0 M 250.0 184.3545736295721 L 339.64542637042774 274.0 M 250.0 171.54808414808238 L 352.4519158519174 274.0 M 250.0 158.74159466659268 L 365.2584053334071 274.0 M 250.0 145.93510518510297 L 378.0648948148968 274.0 M 250.0 133.12861570361326 L 390.87138429638645 274.0 M 250.0 120.32212622212357 L 403.67787377787613 274.0 M 250.0 107.51563674063388 L 416.4843632593658 274.0 M 250.0 94.70914725914419 L 429.2908527408555 274.0 M 250.0 81.9026577776545 L 442.09734222234516 274.0 M 250.0 69.0961682961648 L 454.90383170383484 274.0 M 250.0 56.28967881467511 L 467.7103211853245 274.0 M 250.0 43.48318933318542 L 480.5168106668142 274.0 M 250.0 30.676699851695727 L 493.3233001483039 274.0 M 250.0 17.87021037020603 L 506.12978962979355 274.0 M 250.0 5.063720888716336 L 518.9362791112833 274.0 M 250.0 -7.742768592773359 L 531.742768592773 274.0 M 250.0 -20.549258074263054 L 544.5492580742628 274.0 M 250.0 -33.35574755575275 L 557.3557475557525 274.0 M 250.0 -46.16223703724245 L 570.1622370372422 274.0 M 250.0 -58.96872651873214 L 582.968726518732 274.0 M 250.0 262.8064894814897 L 262.8064894814897 250.0 M 250.0 275.61297896297935 L 275.61297896297935 250.0 M 250.0 288.41946844446903 L 288.41946844446903 250.0 M 250.0 301.2259579259587 L 301.2259579259587 250.0 M 250.0 314.0324474074484 L 314.0324474074484 250.0 M 250.0 326.83893688893806 L 326.83893688893806 250.0 M 250.0 339.64542637042774 L 339.64542637042774 250.0 M 250.0 352.4519158519174 L 352.4519158519174 250.0 M 250.0 365.2584053334071 L 365.2584053334071 250.0 M 250.0 378.0648948148968 L 378.0648948148968 250.0 M 250.0 390.87138429638645 L 390.87138429638645 250.0 M 250.0 403.67787377787613 L 403.67787377787613 250.0 M 250.0 416.4843632593658 L 416.4843632593658 250.0 M 250.0 429.2908527408555 L 429.2908527408555 250.0 M 250.0 442.09734222234516 L 442.09734222234516 250.0 M 250.0 454.90383170383484 L 454.90383170383484 250.0 M 250.0 467.7103211853245 L 467.7103211853245 250.0 M 250.0 480.5168106668142 L 480.5168106668142 250.0 M 250.0 493.3233001483039 L 493.3233001483039 250.0 M 250.0 506.12978962979355 L 506.12978962979355 250.0 M 250.0 518.9362791112833 L 518.9362791112833 250.0 M 250.0 531.742768592773 L 531.742768592773 250.0 M 250.0 544.5492580742628 L 544.5492580742628 250.0 M 250.0 557.3557475557525 L 557.3557475557525 250.0 M 250.0 570.1622370372422 L 570.1622370372422 250.0 M 250.0 582.968726518732 L 582.968726518732 250.0 "/>
            </g>
        </pattern>
        <pattern latexdraw:type="crosshatch"
            latexdraw:rotationAngle="0.0"
            latexdraw:size="7.055555555555555"
            patternUnits="userSpaceOnUse" id="pattern877528348" x="0"
            y="0" width="350" height="286">
            <g stroke="black" stroke-width="1.4111111111111112" stroke-dasharray="none">
                <path d="M 299.3333333333333 262.6666666666667 L 299.3333333333333 286.6666666666667 M 307.79999999999995 262.6666666666667 L 307.79999999999995 286.6666666666667 M 316.2666666666666 262.6666666666667 L 316.2666666666666 286.6666666666667 M 324.73333333333323 262.6666666666667 L 324.73333333333323 286.6666666666667 M 333.1999999999999 262.6666666666667 L 333.1999999999999 286.6666666666667 M 341.6666666666665 262.6666666666667 L 341.6666666666665 286.6666666666667 M 299.3333333333333 262.6666666666667 L 350.0 262.6666666666667 M 299.3333333333333 271.1333333333333 L 350.0 271.1333333333333 M 299.3333333333333 279.59999999999997 L 350.0 279.59999999999997 "/>
            </g>
        </pattern>
        <pattern latexdraw:type="crosshatch"
            latexdraw:rotationAngle="0.0"
            latexdraw:size="7.055555555555555"
            patternUnits="userSpaceOnUse" id="pattern1314223355" x="0"
            y="0" width="349" height="212">
            <g stroke="black" stroke-width="1.4111111111111112" stroke-dasharray="none">
                <path d="M 299.3333333333333 162.66666666666666 L 299.3333333333333 212.66666666666666 M 307.79999999999995 162.66666666666666 L 307.79999999999995 212.66666666666666 M 316.2666666666666 162.66666666666666 L 316.2666666666666 212.66666666666666 M 324.73333333333323 162.66666666666666 L 324.73333333333323 212.66666666666666 M 333.1999999999999 162.66666666666666 L 333.1999999999999 212.66666666666666 M 341.6666666666665 162.66666666666666 L 341.6666666666665 212.66666666666666 M 299.3333333333333 162.66666666666666 L 349.3333333333333 162.66666666666666 M 299.3333333333333 171.13333333333333 L 349.3333333333333 171.13333333333333 M 299.3333333333333 179.6 L 349.3333333333333 179.6 M 299.3333333333333 188.06666666666666 L 349.3333333333333 188.06666666666666 M 299.3333333333333 196.53333333333333 L 349.3333333333333 196.53333333333333 M 299.3333333333333 205.0 L 349.3333333333333 205.0 "/>
            </g>
        </pattern>
        <pattern latexdraw:type="crosshatch"
            latexdraw:rotationAngle="0.0"
            latexdraw:size="7.055555555555555"
            patternUnits="userSpaceOnUse" id="pattern657789499" x="0"
            y="0" width="502" height="171">
            <g stroke="black" stroke-width="1.4111111111111112" stroke-dasharray="none">
                <path d="M 463.99999999999955 127.99999999999999 L 463.99999999999955 171.99999999999997 M 472.4666666666662 127.99999999999999 L 472.4666666666662 171.99999999999997 M 480.9333333333328 127.99999999999999 L 480.9333333333328 171.99999999999997 M 489.39999999999947 127.99999999999999 L 489.39999999999947 171.99999999999997 M 497.8666666666661 127.99999999999999 L 497.8666666666661 171.99999999999997 M 463.99999999999955 127.99999999999999 L 502.6666666666663 127.99999999999999 M 463.99999999999955 136.46666666666664 L 502.6666666666663 136.46666666666664 M 463.99999999999955 144.9333333333333 L 502.6666666666663 144.9333333333333 M 463.99999999999955 153.39999999999998 L 502.6666666666663 153.39999999999998 M 463.99999999999955 161.86666666666665 L 502.6666666666663 161.86666666666665 M 463.99999999999955 170.33333333333331 L 502.6666666666663 170.33333333333331 "/>
            </g>
        </pattern>
        <pattern latexdraw:type="crosshatch"
            latexdraw:rotationAngle="0.7853981633974483"
            latexdraw:size="7.055555555555555"
            patternUnits="userSpaceOnUse" id="pattern1539903064" x="0"
            y="0" width="502" height="240">
            <g stroke="black" stroke-width="1.4111111111111112" stroke-dasharray="none">
                <path d="M 464.0000000000001 209.97367482809216 L 475.9736748280923 197.99999999999994 M 464.0000000000001 221.94734965618437 L 487.94734965618454 197.99999999999994 M 464.0000000000001 233.9210244842766 L 499.92102448427676 197.99999999999994 M 464.0000000000001 245.8946993123688 L 511.89469931236897 197.99999999999994 M 464.0000000000001 257.868374140461 L 523.8683741404611 197.99999999999994 M 464.0000000000001 269.84204896855323 L 535.8420489685533 197.99999999999994 M 464.0000000000001 281.81572379664544 L 547.8157237966454 197.99999999999994 M 464.0000000000001 293.78939862473766 L 559.7893986247376 197.99999999999994 M 464.0000000000001 305.7630734528299 L 571.7630734528298 197.99999999999994 M 464.0000000000001 317.7367482809221 L 583.7367482809219 197.99999999999994 M 464.0000000000001 329.7104231090143 L 595.7104231090141 197.99999999999994 M 464.0000000000001 341.6840979371065 L 607.6840979371062 197.99999999999994 M 464.0000000000001 353.65777276519873 L 619.6577727651984 197.99999999999994 M 464.0000000000001 365.63144759329094 L 631.6314475932905 197.99999999999994 M 464.0000000000001 377.60512242138316 L 643.6051224213827 197.99999999999994 M 464.0000000000001 389.5787972494754 L 655.5787972494749 197.99999999999994 M 464.0000000000001 401.5524720775676 L 667.552472077567 197.99999999999994 M 464.0000000000001 413.5261469056598 L 679.5261469056592 197.99999999999994 M 464.0000000000001 425.499821733752 L 691.4998217337513 197.99999999999994 M 464.0000000000001 437.47349656184423 L 703.4734965618435 197.99999999999994 M 464.0000000000001 449.44717138993644 L 715.4471713899356 197.99999999999994 M 464.0000000000001 461.42084621802866 L 727.4208462180278 197.99999999999994 M 464.0000000000001 473.3945210461209 L 739.39452104612 197.99999999999994 M 464.0000000000001 485.3681958742131 L 751.3681958742121 197.99999999999994 M 464.0000000000001 228.69299183857441 L 475.9736748280923 240.66666666666663 M 464.0000000000001 216.7193170104822 L 487.94734965618454 240.66666666666663 M 464.0000000000001 204.74564218239 L 499.92102448427676 240.66666666666663 M 464.0000000000001 192.77196735429777 L 511.89469931236897 240.66666666666663 M 464.0000000000001 180.79829252620556 L 523.8683741404611 240.66666666666663 M 464.0000000000001 168.82461769811334 L 535.8420489685533 240.66666666666663 M 464.0000000000001 156.85094287002113 L 547.8157237966454 240.66666666666663 M 464.0000000000001 144.87726804192891 L 559.7893986247376 240.66666666666663 M 464.0000000000001 132.9035932138367 L 571.7630734528298 240.66666666666663 M 464.0000000000001 120.9299183857445 L 583.7367482809219 240.66666666666663 M 464.0000000000001 108.9562435576523 L 595.7104231090141 240.66666666666663 M 464.0000000000001 96.9825687295601 L 607.6840979371062 240.66666666666663 M 464.0000000000001 85.0088939014679 L 619.6577727651984 240.66666666666663 M 464.0000000000001 73.0352190733757 L 631.6314475932905 240.66666666666663 M 464.0000000000001 61.06154424528349 L 643.6051224213827 240.66666666666663 M 464.0000000000001 49.087869417191285 L 655.5787972494749 240.66666666666663 M 464.0000000000001 37.11419458909908 L 667.552472077567 240.66666666666663 M 464.0000000000001 25.14051976100687 L 679.5261469056592 240.66666666666663 M 464.0000000000001 13.166844932914666 L 691.4998217337513 240.66666666666663 M 464.0000000000001 1.1931701048224603 L 703.4734965618435 240.66666666666663 M 464.0000000000001 -10.780504723269745 L 715.4471713899356 240.66666666666663 M 464.0000000000001 -22.75417955136195 L 727.4208462180278 240.66666666666663 M 464.0000000000001 -34.72785437945416 L 739.39452104612 240.66666666666663 M 464.0000000000001 -46.701529207546365 L 751.3681958742121 240.66666666666663 "/>
            </g>
        </pattern>
        <pattern latexdraw:type="crosshatch"
            latexdraw:rotationAngle="0.0"
            latexdraw:size="7.055555555555555"
            patternUnits="userSpaceOnUse" id="pattern1808984503" x="0"
            y="0" width="398" height="254">
            <g stroke="black" stroke-width="1.4111111111111112" stroke-dasharray="none">
                <path d="M 349.3333333333333 249.33333333333334 L 349.3333333333333 254.0 M 357.79999999999995 249.33333333333334 L 357.79999999999995 254.0 M 366.2666666666666 249.33333333333334 L 366.2666666666666 254.0 M 374.73333333333323 249.33333333333334 L 374.73333333333323 254.0 M 383.1999999999999 249.33333333333334 L 383.1999999999999 254.0 M 391.6666666666665 249.33333333333334 L 391.6666666666665 254.0 M 349.3333333333333 249.33333333333334 L 398.0 249.33333333333334 "/>
            </g>
        </pattern>
        <pattern latexdraw:type="crosshatch"
            latexdraw:rotationAngle="0.0"
            latexdraw:size="7.055555555555555"
            patternUnits="userSpaceOnUse" id="pattern1303527188" x="0"
            y="0" width="399" height="174">
            <g stroke="black" stroke-width="1.4111111111111112" stroke-dasharray="none">
                <path d="M 349.3333333333333 74.0 L 349.3333333333333 174.0 M 357.79999999999995 74.0 L 357.79999999999995 174.0 M 366.2666666666666 74.0 L 366.2666666666666 174.0 M 374.73333333333323 74.0 L 374.73333333333323 174.0 M 383.1999999999999 74.0 L 383.1999999999999 174.0 M 391.6666666666665 74.0 L 391.6666666666665 174.0 M 349.3333333333333 74.0 L 399.3333333333333 74.0 M 349.3333333333333 82.46666666666667 L 399.3333333333333 82.46666666666667 M 349.3333333333333 90.93333333333334 L 399.3333333333333 90.93333333333334 M 349.3333333333333 99.4 L 399.3333333333333 99.4 M 349.3333333333333 107.86666666666667 L 399.3333333333333 107.86666666666667 M 349.3333333333333 116.33333333333334 L 399.3333333333333 116.33333333333334 M 349.3333333333333 124.80000000000001 L 399.3333333333333 124.80000000000001 M 349.3333333333333 133.26666666666668 L 399.3333333333333 133.26666666666668 M 349.3333333333333 141.73333333333335 L 399.3333333333333 141.73333333333335 M 349.3333333333333 150.20000000000002 L 399.3333333333333 150.20000000000002 M 349.3333333333333 158.66666666666669 L 399.3333333333333 158.66666666666669 M 349.3333333333333 167.13333333333335 L 399.3333333333333 167.13333333333335 "/>
            </g>
        </pattern>
    </defs>
    <metadata>
        <latexdraw:metadata>
            <latexdraw:latexIncludes/>
            <latexdraw:displayXScale>true</latexdraw:displayXScale>
            <latexdraw:displayYScale>true</latexdraw:displayYScale>
            <latexdraw:unit>CM</latexdraw:unit>
            <latexdraw:zoom>1.5</latexdraw:zoom>
            <latexdraw:magneticGridStyle>CUSTOMISED</latexdraw:magneticGridStyle>
            <latexdraw:gridGap>10</latexdraw:gridGap>
            <latexdraw:magneticGrid>false</latexdraw:magneticGrid>
            <latexdraw:version>3.3.6</latexdraw:version>
            <latexdraw:size>
                <latexdraw:width>1196</latexdraw:width>
                <latexdraw:height>716</latexdraw:height>
            </latexdraw:size>
            <latexdraw:position>
                <latexdraw:x>170.0</latexdraw:x>
                <latexdraw:y>52.0</latexdraw:y>
            </latexdraw:position>
        </latexdraw:metadata>
    </metadata>
</svg>
